# xmcd
#
# Track frame offsets:
#	198
#	13563
#	29928
#	37778
#	49140
#	61953
#	75003
#	85405
#	106473
#	128420
#	158388
#
# Disc length: 2487 seconds
#
# Revision: 0
# Processed by: cddbd v1.4PL0 Copyright (c) Steve Scherf et al.
# Submitted via: EasyCDDAExtractor 5.0.4.1
#
DISCID=7509b50b
DTITLE=Animals - Live in London67/Stockholm98
DYEAR=1900
DGENRE=Blues
TTITLE0=maudie
TTITLE1=inside looking out
TTITLE2=instrumental
TTITLE3=love like yours
TTITLE4=shake rattle and roll
TTITLE5=when i was young
TTITLE6=connection
TTITLE7=yes.i am experienced
TTITLE8=san francisco nights
TTITLE9=monterey
TTITLE10=paint it black
EXTD=
EXTT0=
EXTT1=
EXTT2=
EXTT3=
EXTT4=
EXTT5=
EXTT6=
EXTT7=
EXTT8=
EXTT9=
EXTT10=
PLAYORDER=
